<?xml version="1.0" standalone="no"?>
<!DOCTYPE svg PUBLIC "-//W3C//DTD SVG 20010904//EN"
 "http://www.w3.org/TR/2001/REC-SVG-20010904/DTD/svg10.dtd">
<svg version="1.0" xmlns="http://www.w3.org/2000/svg"
 width="550.000000pt" height="550.000000pt" viewBox="0 0 550.000000 550.000000"
 preserveAspectRatio="xMidYMid meet">
<metadata>
Created by potrace 1.11, written by Peter Selinger 2001-2013
</metadata>
<g transform="translate(0.000000,550.000000) scale(0.100000,-0.100000)"
fill="#000000" stroke="none">
<path d="M979 5426 c-2 -3 -49 -7 -104 -11 -55 -3 -107 -8 -115 -10 -8 -2 -33
-6 -55 -10 -232 -33 -418 -136 -521 -289 -61 -90 -115 -251 -130 -391 -3 -33
-8 -69 -10 -80 -26 -133 -25 -3461 1 -3700 2 -22 7 -65 10 -95 11 -103 46
-255 76 -328 91 -228 258 -346 560 -395 138 -23 152 -25 284 -34 152 -10 3484
-11 3625 0 349 25 558 110 686 280 60 81 88 138 118 239 24 82 28 104 41 203
4 28 9 61 11 75 13 85 17 507 17 1885 0 1386 -3 1783 -18 1865 -2 14 -6 51
-10 82 -10 101 -52 245 -97 330 -109 210 -323 333 -633 363 -33 3 -80 9 -105
12 -47 7 -3624 15 -3631 9z m1849 -1136 c48 -25 63 -38 87 -75 19 -29 20 -53
25 -705 l5 -675 230 -226 c127 -125 273 -269 326 -320 631 -614 850 -835 865
-876 46 -121 -45 -254 -174 -255 -28 0 -65 7 -83 16 -19 9 -115 96 -214 193
-99 97 -375 368 -614 602 -238 234 -491 482 -562 551 -83 81 -134 139 -145
164 -14 36 -16 115 -16 756 1 789 -2 755 63 818 55 53 142 67 207 32z"/>
</g>
</svg>
